<?xml version="1.0" encoding="UTF-8" standalone="no"?>
<!-- Created with Inkscape (http://www.inkscape.org/) -->

<svg
   version="1.1"
   id="svg1"
   width="256"
   height="256"
   viewBox="0 0 256 256"
   xmlns:xlink="http://www.w3.org/1999/xlink"
   xmlns="http://www.w3.org/2000/svg"
   xmlns:svg="http://www.w3.org/2000/svg">
  <defs
     id="defs1">
    <linearGradient
       id="swatch1">
      <stop
         style="stop-color:#36ffc1;stop-opacity:1;"
         offset="0"
         id="stop1" />
    </linearGradient>
    <linearGradient
       xlink:href="#swatch1"
       id="linearGradient1"
       x1="0.98404253"
       y1="127.57367"
       x2="254.67554"
       y2="127.57367"
       gradientUnits="userSpaceOnUse" />
  </defs>
  <g
     id="g1">
    <path
       style="fill:url(#linearGradient1);fill-opacity:1;stroke:#000000;stroke-width:1.37938;stroke-opacity:1"
       d="m 1.9673433,248.91575 v -4.95659 H 127.82979 253.69223 v 4.95659 4.9566 H 127.82979 1.9673433 Z m 17.9109887,-23.53464 -2.236618,-2.71694 0.520868,-60.23181 0.520867,-60.23182 H 127.82979 236.97612 l 0.52087,60.23182 0.52086,60.23181 -2.23662,2.71694 -2.2366,2.71694 H 127.82979 22.114949 Z M 228.12642,163.66231 V 111.1224 H 127.82979 27.533152 v 52.53991 52.53991 H 127.82979 228.12642 Z M 123.324,210.99883 c -0.7667,-0.77297 -1.39402,-3.10098 -1.39402,-5.17338 0,-2.07238 -3.09739,-6.71302 -6.8831,-10.31251 -3.78571,-3.59949 -6.8831,-8.44661 -6.8831,-10.77137 v -4.22683 h 4.9165 c 3.08995,0 4.9165,1.12067 4.9165,3.01645 0,1.65907 2.21243,4.03274 4.9165,5.27484 l 4.91651,2.2584 4.9165,-2.2584 4.9165,-2.25836 v -5.68313 c 0,-6.90321 -5.38206,-12.24564 -12.33645,-12.24564 -17.0786,0 -24.17465,-28.74012 -9.2147,-37.32099 l 5.79347,-3.32308 0.0127,-5.45226 0.0127,-5.45225 h 5.89981 5.89978 v 5.94792 c 0,3.27134 0.92521,5.94791 2.05599,5.94791 3.9607,0 11.71023,9.7808 11.71023,14.77966 0,7.06678 -5.98991,6.59693 -11.48865,-0.90119 -7.25431,-9.89201 -19.07017,-5.0609 -17.66613,7.22306 l 0.63906,5.5911 5.8998,1.70634 c 24.28234,7.02303 31.20568,25.042 14.98891,39.01073 -3.16483,2.72612 -6.06212,7.18707 -6.43838,9.91317 -0.6721,4.8695 -7.01568,7.82572 -10.10641,4.70981 z m -83.991244,-9.6664 v -4.95658 h 4.916502 4.916501 v 4.95658 4.95659 h -4.916501 -4.916502 z m 167.161054,0 v -4.95658 h 4.9165 4.91651 v 4.95658 4.95659 h -4.91651 -4.9165 z M 57.249924,179.40391 c -11.356572,-9.63386 -9.32877,-26.78491 3.987634,-33.72725 8.372796,-4.36504 17.84846,-2.28202 24.191765,5.31805 15.886997,19.03459 -9.29878,44.42574 -28.179399,28.4092 z m 19.785044,-8.11833 c 5.159695,-4.70753 4.523804,-11.87583 -1.40066,-15.78935 l -4.997061,-3.3009 -4.665369,2.14302 c -6.32228,2.90412 -8.057223,9.34324 -4.140965,15.36897 3.654879,5.62352 10.043384,6.2867 15.204055,1.57826 z m 98.209692,10.42766 c -10.73498,-5.99847 -13.17432,-20.94196 -5.01441,-30.71853 9.55593,-11.4492 26.56824,-9.40485 33.45441,4.02014 9.00917,17.56388 -11.06394,36.40773 -28.44,26.69839 z m 18.584,-12.00592 c 3.91626,-6.02573 2.18132,-12.46485 -4.14098,-15.36897 l -4.66534,-2.14302 -4.99707,3.3009 c -5.74925,3.79778 -6.46917,10.17923 -1.74236,15.44487 4.60763,5.1329 11.77773,4.56383 15.54575,-1.23378 z M 39.332756,126.98351 v -5.94791 h 4.916502 4.916501 v 5.94791 5.94792 h -4.916501 -4.916502 z m 167.161054,0 v -5.94791 h 4.9165 4.91651 v 5.94791 5.94792 h -4.91651 -4.9165 z M 4.8014686,82.49533 0.98404253,79.642543 3.9339434,76.696313 C 8.8686404,71.767759 124.66827,1.2749815 127.82979,1.2749815 c 3.16152,0 118.96115,70.4927775 123.89583,75.4213315 l 2.94992,2.94623 -3.81744,2.852787 -3.81742,2.852782 H 127.82979 8.618896 Z M 223.20991,69.784356 C 151.78593,25.559319 128.61613,12.022855 126.04472,13.017647 c -2.5005,0.967358 -95.769319,57.642425 -98.347684,59.761256 -0.450681,0.370357 44.682806,0.670042 100.296654,0.665965 l 101.11603,-0.0073 z M 91.237269,60.402976 c 0.656538,-1.724862 1.193708,-3.955329 1.193708,-4.956595 0,-1.038128 15.212713,-1.820483 35.398813,-1.820483 20.1861,0 35.39881,0.782355 35.39881,1.820483 0,1.001266 0.53716,3.231733 1.19371,4.956595 l 1.19371,3.136113 H 127.82979 90.043561 Z M 112.09698,36.773473 v -4.956595 h 15.73281 15.73281 v 4.956595 4.956596 h -15.73281 -15.73281 z"
       id="path1" />
  </g>
</svg>
